<?xml version="1.0" encoding="UTF-8"?>
<svg version="1.1" viewBox="0 0 370 200" xml:space="preserve" xmlns="http://www.w3.org/2000/svg" xmlns:xlink="http://www.w3.org/1999/xlink"><g transform="translate(84.725)"><path d="m71.471 28.568c-18.706 1.46e-4 -33.871 15.165-33.871 33.871 0.024 16.379 11.573 30.408 27.695 33.302l-0.04188 12.977c-14.078 4.4434-23.483 17.483-23.503 32.245 1.43e-4 18.706 15.165 33.871 33.871 33.871 18.706-1.4e-4 33.871-15.165 33.871-33.871-0.0362-16.265-11.331-30.225-27.316-33.231l-0.10171-13.136c13.882-4.576 23.263-17.541 23.267-32.158-6e-3 -1.5333-0.11576-3.0644-0.32905-4.5828l12.554-4.8501-5.6099-13.964-12.081 4.9458c-6.2406-9.6364-16.924-15.416-28.404-15.42zm0 18.393c8.5485-2.6e-4 15.479 6.9291 15.48 15.478 2.6e-4 8.5492-6.9303 15.48-15.48 15.48-8.5485-8.4e-4 -15.478-6.9311-15.478-15.48 8.4e-4 -8.5477 6.9299-15.477 15.478-15.478zm4.1501 78.525c8.5485-2.7e-4 15.479 6.9291 15.48 15.478 2.62e-4 8.5492-6.9303 15.48-15.48 15.48-8.5485-8.3e-4 -15.478-6.9311-15.478-15.48 8.42e-4 -8.5477 6.9299-15.477 15.478-15.478z" fill="#2f419b"/><path d="m146.29 69.162c-9.5264 0.01919-18.495 3.8558-24.899 10.909l-12.514-7.2512-7.4865 13.082 12.454 7.4067c-0.96578 3.1752-1.4198 6.4053-1.4259 9.7241 1.4e-4 18.706 15.165 33.871 33.871 33.871 18.706-1.5e-4 33.871-15.165 33.871-33.871-1.6e-4 -18.706-15.165-33.871-33.871-33.871zm0 18.393c8.5485-2.63e-4 15.479 6.9291 15.48 15.478 2.6e-4 8.5492-6.9303 15.48-15.48 15.48-8.5485-8.4e-4 -15.478-6.9311-15.478-15.48 8.5e-4 -8.5477 6.9299-15.477 15.478-15.478z" fill="#2f419b"/><path d="m100 0a100 100 0 0 0-100 100 100 100 0 0 0 100 99.999 100 100 0 0 0 99.999-99.999 100 100 0 0 0-99.999-100zm0 9.3053a90.695 90.695 0 0 1 90.694 90.696 90.695 90.695 0 0 1-90.694 90.694 90.695 90.695 0 0 1-90.696-90.694 90.695 90.695 0 0 1 90.696-90.696z" fill="#588fb7"/></g><path d="m74.726 25.275a4.7244 4.7244 0 0 0-3.3418 1.3828l-70 70a4.7249 4.7249 0 0 0 0 6.6816l70 70a4.7244 4.7244 0 0 0 6.6816 0 4.7244 4.7244 0 0 0 0-6.6816l-66.658-66.658 66.658-66.66a4.7244 4.7244 0 0 0 0-6.6816 4.7244 4.7244 0 0 0-3.3398-1.3828z" fill="#588fb7" stroke-linecap="round" stroke-linejoin="round"/><path d="m294.72 25.275a4.7244 4.7244 0 0 0-3.3398 1.3828 4.7244 4.7244 0 0 0 0 6.6816l66.66 66.66-66.66 66.658a4.7244 4.7244 0 0 0 0 6.6816 4.7244 4.7244 0 0 0 6.6816 0l70-70a4.7249 4.7249 0 0 0 0-6.6816l-70-70a4.7244 4.7244 0 0 0-3.3418-1.3828z" fill="#588fb7" stroke-linecap="round" stroke-linejoin="round"/></svg>
